<?xml version="1.0" encoding="utf-8"?>
<!-- Generator: Adobe Illustrator 19.0.0, SVG Export Plug-In . SVG Version: 6.00 Build 0)  -->
<svg version="1.1" id="Layer_1" xmlns="http://www.w3.org/2000/svg" xmlns:xlink="http://www.w3.org/1999/xlink" x="0px" y="0px"
	 viewBox="0 0 175 253" style="enable-background:new 0 0 175 253;" xml:space="preserve">
<style type="text/css">
	.st0{fill:#1C2B39;}
</style>
<g>
	<path class="st0" d="M161.2,93.8h-16.4c-2.7,0-4.8,2.1-4.8,4.8c0,2.6,2.1,4.8,4.8,4.8h3.5v25.2l-10.7,5.7
		c-2.6-3.4-6.8-5.6-11.3-5.6h-26.2v-12.9h16.1c4.5,0,8.6-1.8,11.7-5c3.1-3.2,4.7-7.4,4.5-11.9l-3.1-70.5
		c-0.4-8.7-7.5-15.4-16.1-15.4H62.6c-8.7,0-15.8,6.8-16.1,15.4L43.4,99c-0.2,4.4,1.4,8.7,4.5,11.9c3.1,3.2,7.2,5,11.7,5h16.1v12.9
		H47.7c-4.7,0-8.9,2.3-11.5,5.9l-1.2-0.6l-9.4-5v-25.2h3.5c2.6,0,4.8-2.1,4.8-4.8c0-2.7-2.2-4.8-4.8-4.8H12.8
		c-2.7,0-4.8,2.1-4.8,4.8c0,2.6,2.1,4.8,4.8,4.8h3.3v28.1c0,1.8,1,3.4,2.5,4.2l14.5,7.7l-0.7,3.6c-0.8,4.2,0.3,8.4,3,11.7
		c2.7,3.3,6.7,5.1,10.9,5.1H73v9.3c0,2.6,2.1,4.8,4.8,4.8h5.4c-0.1,0.3-0.1,0.6-0.1,0.8V191c-18.6,0.4-37.1,2.9-55,7.5
		c-2.1,0.5-3.6,2.5-3.6,4.7v10.4c-4.2,1.9-7.2,6.1-7.2,11c0,6.6,5.4,12,12,12c6.6,0,12-5.4,12-12c0-4.9-3-9.1-7.2-10.9v-6.6
		c16-3.8,32.5-5.9,49.1-6.3v12.9c-4.2,1.9-7.1,6.1-7.1,10.9c0,6.6,5.4,12,12,12c6.6,0,12-5.4,12-12c0-4.9-3-9.1-7.2-11v-12.9
		c16.6,0.3,33,2.4,49.1,6.3v6.6c-4.2,1.9-7.2,6.1-7.2,10.9c0,6.6,5.4,12,12,12c6.6,0,12-5.4,12-12c0-4.9-3-9.1-7.2-11v-10.2
		c0.1-2.2-1.4-4.2-3.6-4.8c-17.9-4.6-36.4-7.1-55-7.5v-11.9c0-0.3,0-0.6-0.1-0.8h5.4c2.6,0,4.8-2.2,4.8-4.8v-9.3h25.1
		c4.3,0,8.3-1.9,11.1-5.3c2.7-3.4,3.7-7.7,2.8-11.9l-0.8-3.5l14.4-7.7c1.6-0.8,2.5-2.5,2.5-4.2v-28.1h3.3c2.7,0,4.8-2.2,4.8-4.8
		C166,96,163.9,93.8,161.2,93.8L161.2,93.8z M26.8,224.5c0-1.3,1.1-2.4,2.4-2.4c1.3,0,2.4,1.1,2.4,2.4c0,1.3-1.1,2.4-2.4,2.4
		C27.9,226.8,26.8,225.8,26.8,224.5L26.8,224.5z M144.1,224.5c0-1.3,1.1-2.4,2.4-2.4c1.3,0,2.4,1.1,2.4,2.4c0,1.3-1.1,2.4-2.4,2.4
		C145.2,226.8,144.1,225.8,144.1,224.5L144.1,224.5z M87.9,226.9c-1.3,0-2.4-1.1-2.4-2.4c0-1.3,1.1-2.4,2.4-2.4
		c1.3,0,2.4,1.1,2.4,2.4C90.3,225.8,89.2,226.9,87.9,226.9L87.9,226.9z M93.1,168.7H82.6v-4.5h10.6V168.7z M46.4,154.6
		c-1.9,0-3-1-3.5-1.7c-0.5-0.6-1.3-1.9-1-3.8l1.3-7.1c0.4-2.2,2.3-3.8,4.5-3.8h78.6c2.2,0,4,1.5,4.5,3.6l1.5,7.1
		c0.3,1.4,0,2.8-0.9,3.9c-0.9,1.1-2.2,1.7-3.6,1.7H46.4z M90.5,115.8v12.9h-5.3v-12.9H90.5z M90.5,115.8"/>
</g>
</svg>
