<?xml version="1.0" encoding="utf-8"?>
<!-- Generator: Adobe Illustrator 19.0.0, SVG Export Plug-In . SVG Version: 6.00 Build 0)  -->
<svg version="1.1" id="Layer_1" xmlns="http://www.w3.org/2000/svg" xmlns:xlink="http://www.w3.org/1999/xlink" x="0px" y="0px"
	 viewBox="0 0 417 380" style="enable-background:new 0 0 417 380;" xml:space="preserve">
<style type="text/css">
	.st0{fill:#1C2B39;}
</style>
<path class="st0" d="M90.2,199.4H20.3c-4,0-7.3,3.3-7.3,7.3s3.3,7.3,7.3,7.3h17.6V244c0,4,3.3,7.3,7.3,7.3h18v111
	c0,4,3.3,7.3,7.3,7.3h25.3c4,0,7.3-3.3,7.3-7.3s-3.3-7.3-7.3-7.3H77.6V251.2h262.9v103.7h-18c-4,0-7.3,3.3-7.3,7.3
	c0,4,3.3,7.3,7.3,7.3h25.3c4,0,7.3-3.3,7.3-7.3v-111h18.6c4,0,7.3-3.3,7.3-7.3v-30.1h17.6c4,0,7.3-3.3,7.3-7.3s-3.3-7.3-7.3-7.3h-70
	l-8.6-47.4c-1.9-10.6-11.2-18.4-22-18.4h-10l-5.4-91.6c-1-17.4-15.4-30.9-32.8-30.9h-80.7c-17.4,0-31.8,13.6-32.8,30.9l-5.4,91.6
	h-10c-10.8,0-20.1,7.8-22,18.4L90.2,199.4z M366.4,236.7H52.4v-22.8h313.8L366.4,236.7L366.4,236.7z M298,148.1c3.8,0,7,2.7,7.8,6.5
	l8.1,44.7h-21.9l-3-51.2H298z M150.8,42.9c0.6-9.7,8.6-17.3,18.3-17.3h80.6c9.7,0,17.8,7.6,18.3,17.3l9.4,156.5h-136L150.8,42.9z
	 M113.1,154.6c0.6-3.8,3.9-6.5,7.8-6.5h9.1l-3,51.2H105L113.1,154.6z M113.1,154.6"/>
<path class="st0" d="M275.3,42.5c-0.8-13.5-12-24.1-25.6-24.1h-37H206h-37c-13.5,0-24.8,10.6-25.6,24.1l-9.8,164.1h151.4L275.3,42.5
	z M242.4,97.6h-67.7c-4,0-7.3-3.3-7.3-7.3c0-4,3.3-7.3,7.3-7.3h67.7c4,0,7.3,3.3,7.3,7.3C249.6,94.3,246.4,97.6,242.4,97.6z"/>
<path class="st0" d="M285.1,283.1c4,0,7.3-3.3,7.3-7.3c0-4-3.3-7.3-7.3-7.3H133.7c-4,0-7.3,3.3-7.3,7.3c0,4,3.3,7.3,7.3,7.3h68.5
	v31.8h-33.3c-4,0-7.3,3.3-7.3,7.3v40c0,4,3.3,7.3,7.3,7.3c4,0,7.3-3.3,7.3-7.3v-32.7h26.1v32.7c0,4,3.3,7.3,7.3,7.3s7.3-3.3,7.3-7.3
	v-32.7h26.1v32.7c0,4,3.3,7.3,7.3,7.3c4,0,7.3-3.3,7.3-7.3v-40c0-4-3.3-7.3-7.3-7.3h-33.3v-31.8H285.1z M285.1,283.1"/>
</svg>
