<?xml version="1.0" encoding="utf-8"?>
<!-- Generator: Adobe Illustrator 19.0.0, SVG Export Plug-In . SVG Version: 6.00 Build 0)  -->
<svg version="1.1" id="Layer_1" xmlns="http://www.w3.org/2000/svg" xmlns:xlink="http://www.w3.org/1999/xlink" x="0px" y="0px"
	 viewBox="0 0 380 366.8" style="enable-background:new 0 0 380 366.8;" xml:space="preserve">
<style type="text/css">
	.st0{fill:#1C2B39;}
</style>
<g>
	<path class="st0" d="M230,38.8c0,16-13,29-29,29c-16,0-29-13-29-29c0-16,13-29,29-29C217,9.8,230,22.8,230,38.8L230,38.8z
		 M230,38.8"/>
	<path class="st0" d="M242,252.7v1.9c0.9,0,1.9,0,2.8,0.1l29.8,3.3v-15.5c0-2.1-1.1-3.9-2.8-4.9c-2.2,8.7-10,15.2-19.4,15.2H242z
		 M242,252.7"/>
	<path class="st0" d="M157.8,193l0.4-82.9c0-1.5,1.2-2.7,2.7-2.7c1.5,0,2.7,1.2,2.7,2.7l0,87.3c3.9,4,6.2,9.4,6.4,15.2H238
		c0-3-0.1-5.3-0.1-9.5l-17.8-10.8c-11-6.7-14.4-21-7.8-31.9c5.4-8.9,15.8-12.8,25.4-10.5c0-10.9,0-24,0-39.7c0-1.6,1.3-2.9,2.9-2.9
		c1.6,0,2.9,1.3,3,2.9l0.2,42.2c0.8,0.5-2.6-1.6,28.1,17.1l-0.3-59.5c-0.1-18.2-14.9-32.9-33.1-32.9h-14.7
		c-1.8,4.8-15,40.2-16.9,45.3l4.1-19.3c0.3-1.4,0.1-2.8-0.6-4l-5.6-10.2l5-8.8c0.3-0.6,0.3-1.4,0-2c-0.4-0.6-1-1-1.7-1h-13.7
		c-0.7,0-1.4,0.4-1.7,1c-0.4,0.6-0.4,1.4,0,2l5,8.8l-5.6,10.2c-0.7,1.2-0.9,2.6-0.6,3.9l3.6,19.3c-1.8-4.6-14.5-40.3-16.4-45.3h-15
		c-18.2,0-33,14.8-33.1,32.9l-0.4,81.3l15.6-1C149.8,190,154.1,191,157.8,193L157.8,193z M157.8,193"/>
	<path class="st0" d="M226.7,298.1v-2c-3.1-6.8-2.1-4.7-4.6-10.2c-3.9-8.7-1.8-18.5,4.6-24.9v-8.3h-16v79.1h13.6
		c5.3,0,10.1,2.1,13.7,5.4v-16.1l-2.8-6.2C230.1,311.1,226.7,305,226.7,298.1L226.7,298.1z M226.7,298.1"/>
	<rect x="163.6" y="252.7" class="st0" width="7.1" height="79.1"/>
	<path class="st0" d="M253.5,212.7l-9.5-5.8l0,5.7C252.8,212.7,252.7,212.7,253.5,212.7L253.5,212.7z M253.5,212.7"/>
	<path class="st0" d="M94.9,119.7c0,15.3-12.4,27.8-27.8,27.8c-15.3,0-27.8-12.4-27.8-27.8c0-15.3,12.4-27.8,27.8-27.8
		C82.4,91.9,94.9,104.3,94.9,119.7L94.9,119.7z M94.9,119.7"/>
	<g>
		<path class="st0" d="M341.1,121.7c0,14.8-12,26.9-26.8,26.9c-14.8,0-26.9-12-26.9-26.9c0-14.8,12-26.8,26.9-26.8
			C329.1,94.9,341.1,106.9,341.1,121.7L341.1,121.7z M341.1,121.7"/>
		<path class="st0" d="M363.6,176.2c-4.9,0-8.8,4-8.8,8.8v88h-14.5l6.1-93.4c0.6-9.5-6.6-17.8-16.1-18.4l-30.8-2
			c-8.4-0.6-15.8,5-17.9,12.9l25.1-4.5l-34.1,15.9l-34.3-20.9c-5.5-3.3-12.6-1.6-16,3.9c-3.3,5.5-1.6,12.6,3.9,16l39.6,24.2
			c1.8,1.1,3.9,1.7,6,1.7c1.7,0,3.4-0.4,4.9-1.1l39.8-18.6c-37.8,31.5-35.7,30.1-38.5,31.3l-2.5,38.1l28.9,3.2l-58.7,4.5
			c-4.5,0.3-8.6,2.9-10.9,6.8c-2.3,3.9-2.6,8.7-0.7,12.8l32.5,72.3c3.2,7,11.4,10.2,18.4,7c7-3.2,10.2-11.4,7-18.4L267.6,292
			c21.9-1.7,2.8-1.3,87.1-1.3v17.1h-57.2v-16.4l-16,4.3c8.9,19.9,11.4,25.4,16,35.6v-5.9h57.2v26.3c0,4.9,4,8.8,8.8,8.8
			c4.9,0,8.8-4,8.8-8.8V185.1C372.4,180.2,368.4,176.2,363.6,176.2L363.6,176.2z M363.6,176.2"/>
	</g>
	<path class="st0" d="M224.3,343.8h-25.6V240.7h53.8c4.4,0,8-3.6,8-8c0-4.4-3.6-8-8-8H150c5.2-1.4,8.8-6.3,8.4-11.9
		c-0.4-6.4-5.9-11.3-12.3-10.9l-40.1,2.5l-22.8-30l18.2,14.2l-1-15.3c-0.6-9.5-8.9-16.8-18.4-16.1l-30.8,2
		c-9.5,0.6-16.8,8.9-16.1,18.4l5.4,80.8c-0.5,5.8,2.6,11.6,8.8,14.2H26.7v-88c0-4.9-4-8.8-8.8-8.8c-4.9,0-8.8,4-8.8,8.8v167.3
		c0,4.9,4,8.8,8.8,8.8c4.9,0,8.8-4,8.8-8.8v-26.4h35l16-17.7H26.7v-17.6h65.4l12.1,5l-39.9,44c-5.2,5.7-4.7,14.5,1,19.7
		c5.7,5.2,14.5,4.7,19.7-1l53.3-58.7c3.1-3.4,4.3-8,3.3-12.4c-1-4.4-4.1-8.1-8.3-9.8l-54.5-22.4l27.5,5.7l31.2,6.5
		c2.6,0.5,5.1,1.5,7.2,2.9l-3.1-13.2c-1.4-6.2-7-10.8-13.6-10.8h-22.7l-0.4-6.2c-3.2,0.2-1.7,0.1-7.7,0.5
		c-6.7,0.4-12.7-3.6-15.1-9.5l-17.3-42l26.5,35c2.4,3.1,6.1,4.8,10,4.6l23.9-1.5c-1.8,1.5-2.9,3.7-2.9,6.2c0,2.1,0.8,4.1,2.2,5.5
		c1.5,1.5,3.5,2.5,5.8,2.5h52.5v103.1H162l-2.8-12l-7.4-31.6c-1.5,2.4-0.4,1-22.7,25.5l6.1,26.1c1.7,7.5,9.3,12.1,16.8,10.4
		c2-0.5,3.8-1.4,5.4-2.6c1.5,0.3-4.2,0.2,67,0.2c4.4,0,8-3.6,8-8C232.3,347.4,228.7,343.8,224.3,343.8L224.3,343.8z M224.3,343.8"/>
</g>
</svg>
