<?xml version="1.0" encoding="utf-8"?>
<!-- Generator: Adobe Illustrator 19.0.0, SVG Export Plug-In . SVG Version: 6.00 Build 0)  -->
<svg version="1.1" id="Layer_1" xmlns="http://www.w3.org/2000/svg" xmlns:xlink="http://www.w3.org/1999/xlink" x="0px" y="0px"
	 viewBox="0 0 340.2 340.2" style="enable-background:new 0 0 340.2 340.2;" xml:space="preserve">
<style type="text/css">
	.st0{fill:#475993;}
</style>
<g>
	<path class="st0" d="M293.2,0.5H44.7C19.4,0.5-1.1,21-1.1,46.3v248.5c0,25.3,20.5,45.8,45.8,45.8h122.6l0.2-121.5h-31.6
		c-4.1,0-7.4-3.3-7.4-7.4l-0.2-39.2c0-4.1,3.3-7.5,7.5-7.5h31.5v-37.9c0-43.9,26.8-67.9,66-67.9h32.2c4.1,0,7.5,3.3,7.5,7.5v33
		c0,4.1-3.3,7.5-7.4,7.5l-19.7,0c-21.3,0-25.4,10.1-25.4,25V165h46.8c4.5,0,7.9,3.9,7.4,8.3l-4.6,39.2c-0.4,3.8-3.6,6.6-7.4,6.6h-42
		l-0.2,121.6h72.9c25.3,0,45.8-20.5,45.8-45.8V46.3C339,21,318.5,0.5,293.2,0.5L293.2,0.5z M293.2,0.5"/>
</g>
</svg>
