<?xml version="1.0" encoding="utf-8"?>
<!-- Generator: Adobe Illustrator 19.0.0, SVG Export Plug-In . SVG Version: 6.00 Build 0)  -->
<svg version="1.1" id="Layer_1" xmlns="http://www.w3.org/2000/svg" xmlns:xlink="http://www.w3.org/1999/xlink" x="0px" y="0px"
	 viewBox="0 0 340.2 340.2" style="enable-background:new 0 0 340.2 340.2;" xml:space="preserve">
<style type="text/css">
	.st0{fill:#50ABF1;}
	.st1{fill:#FFFFFF;}
</style>
<g>
	<rect y="0.2" class="st0" width="340.2" height="340.2"/>
	<path class="st1" d="M45.1,252.4c22.6,14.4,49.5,22.7,78.3,22.7c80.9,0,146.4-65.6,146.4-146.4c0-2,0-4-0.1-6
		c2.9-2.3,21-16.8,25.5-26.1c0,0-14.7,6.1-29.1,7.5c0,0-0.1,0-0.1,0c0,0,0,0,0.1,0c1.3-0.9,19.8-13.5,22.4-28.5
		c0,0-10.4,5.5-24.9,10.4c-2.4,0.8-4.9,1.6-7.5,2.3c-9.4-10-22.7-16.3-37.5-16.3c-28.4,0-51.4,23-51.4,51.4c0,4,0.5,7.9,1.3,11.6
		c-4-0.2-64.4-3.6-105.5-53.3c0,0-24.6,33.5,14.6,68c0,0-11.9-0.5-22.2-6.6c0,0-3.8,40.6,40.6,51c0,0-8.7,3.3-22.7,0.9
		c0,0,7.8,32.8,47.2,35.9C120.5,230.8,89.3,259,45.1,252.4L45.1,252.4z M45.1,252.4"/>
</g>
</svg>
