<?xml version="1.0" encoding="utf-8"?>
<!-- Generator: Adobe Illustrator 19.0.0, SVG Export Plug-In . SVG Version: 6.00 Build 0)  -->
<svg version="1.1" id="Layer_1" xmlns="http://www.w3.org/2000/svg" xmlns:xlink="http://www.w3.org/1999/xlink" x="0px" y="0px"
	 viewBox="0 0 252 242" style="enable-background:new 0 0 252 242;" xml:space="preserve">
<style type="text/css">
	.st0{fill:#1C2B39;}
</style>
<g>
	<path class="st0" d="M221.6,81.3H213C209,44.1,177.4,15,139.1,15h-26.5c-38.3,0-69.9,29.1-73.9,66.3H30c-12.7,0-23,10.3-23,23v36.4
		c0,12.7,10.3,23,23,23h24.9c4.4,0,8-3.6,8-8V89.4c0-4.4-3.6-8-8-8h0c3.9-28.4,28.3-50.3,57.7-50.3h26.5c29.4,0,53.8,21.9,57.7,50.3
		h0c-4.4,0-8,3.6-8,8v66.3c0,4.4,3.6,8,8,8h0.6v9c0,15.4-12.6,28-28,28h-37.1c-3.2-7.8-10.8-13.3-19.7-13.3H99.3
		c-11.7,0-21.3,9.6-21.3,21.3c0,11.7,9.6,21.3,21.3,21.3h13.3c8.9,0,16.5-5.5,19.7-13.3h37.1c24.3,0,44.1-19.8,44.1-44.1v-9h8.2
		c12.7,0,23-10.3,23-23v-36.4C244.6,91.6,234.3,81.3,221.6,81.3L221.6,81.3z M46.8,147.7H30c-3.8,0-6.9-3.1-6.9-6.9v-36.4
		c0-3.8,3.1-6.9,6.9-6.9h16.8V147.7z M112.5,214H99.3c-2.9,0-5.2-2.3-5.2-5.2c0-2.9,2.3-5.2,5.2-5.2h13.3c2.9,0,5.2,2.3,5.2,5.2
		C117.8,211.7,115.4,214,112.5,214L112.5,214z M228.5,140.8c0,3.8-3.1,6.9-6.9,6.9h-16.8V97.4h16.8c3.8,0,6.9,3.1,6.9,6.9V140.8z
		 M228.5,140.8"/>
</g>
</svg>
